<svg id="Capa_1" enable-background="new 0 0 512 512" height="512" viewBox="0 0 512 512" width="512" xmlns="http://www.w3.org/2000/svg"><g><path d="m396.3 175.58c-21.689-20.681-84.515-61.994-129.912-61.994s-72.354 42.376-38.055 85.476z" fill="#6ad5bc"/><path d="m260.372 177.24c-75.905 13.42-161.087 50.113-161.087 100.314 0 70.632 194.827 78.811 288.714 68.427 50.159-5.548 116.502-29.892 116.502-82.8 0-24.436-7.1-41.749-30.267-61.55-45.959-39.279-153.229-35.112-213.862-24.391z" fill="#a1dcfc"/><path d="m165.361 332.832c-41.55-10.645-94.235 17.234-133.544 32.201-12.087 4.602-25.081-4.769-24.25-17.676 1.192-18.51 12.079-31.895 12.079-64.345 0-32.896-11.187-46.198-12.122-65.109-.618-12.49 11.379-21.74 23.312-18.002 38.141 11.947 85.613 33.569 107.484 21.632z" fill="#6ad5bc"/><path d="m138.319 221.532c-9.781 5.339-24.689 3.956-41.586-.262-14.166 15.089-24.447 33.786-24.447 56.284 0 15.157 5.354 37.201 30.856 56.138 1.282.952 2.623 1.883 3.991 2.806 20.17-5.657 40.242-8.273 58.228-3.666z" fill="#2bbbb8"/><path d="m255.392 347.165c-6.138 9.436-19.837 25.422-40.617 33.42-7.669 2.952-15.868-2.939-15.318-11.138.846-12.603-.822-28.582-8.692-41.84z" fill="#2bbbb8"/><path d="m256.887 347.628c-61.743-35.891-51.661-129.712-28.353-163.492-66.039 16.955-129.249 50.174-129.249 93.419 0 44.42 77.057 64.137 157.602 70.073z" fill="#7accf8"/><path d="m331.322 322.983c0 30.786-32.372 65.557-11.381 74.403 19.275 8.123 74.396-34.191 74.396-74.403 0-17.401-14.106-31.507-31.507-31.507-17.401-.001-31.508 14.106-31.508 31.507z" fill="#6ad5bc"/><g><g><ellipse cx="411.522" cy="272.153" fill="#fff" rx="28.919" ry="23.03"/></g></g><path d="m428.376 225.827c-11.726 0-21.265 9.54-21.265 21.265 0 4.142 3.358 7.5 7.5 7.5 4.143 0 7.5-3.358 7.5-7.5 0-3.455 2.811-6.265 6.265-6.265 3.455 0 6.266 2.811 6.266 6.265 0 4.142 3.357 7.5 7.5 7.5s7.5-3.358 7.5-7.5c0-11.725-9.54-21.265-21.266-21.265zm50.73-29.897c-18.243-15.592-46.09-25.838-82.949-30.569-10.463-8.985-24.724-19.049-39.534-27.874-3.556-2.121-8.162-.956-10.281 2.604-2.121 3.559-.955 8.162 2.604 10.282 6.729 4.01 13.319 8.272 19.438 12.55-26.822-1.368-52.007-.051-72.065 1.909-6.903-5.818-14.515-11.679-22.68-17.452-3.383-2.392-8.061-1.589-10.454 1.793-2.392 3.382-1.588 8.063 1.794 10.454 3.6 2.546 7.079 5.107 10.434 7.67-16.817 2.329-33.369 5.516-51.345 10.266-12.971-31.32 9.352-56.477 42.322-56.477 14.427 0 31.965 4.523 52.126 13.444 3.79 1.678 8.218-.036 9.894-3.824s-.036-8.217-3.823-9.893c-22.086-9.772-41.665-14.727-58.196-14.727-43.611 0-72.23 35.311-56.817 75.584-25.403 7.698-52.946 18.729-74.979 33.344-18.451 9.848-66.663-11.352-101.515-22.271-16.882-5.284-33.922 7.822-33.045 25.53 1.018 20.562 12.113 32.96 12.113 64.739 0 31.439-10.767 43.722-12.064 63.864-.849 13.184 8.447 24.606 21.623 26.57 4.073.61 7.91-2.196 8.523-6.313.61-4.097-2.216-7.913-6.313-8.523-4.59-.684-9.257-4.691-8.865-10.77 1.084-16.846 12.095-31.42 12.095-64.828 0-33.675-11.291-48.459-12.131-65.48-.361-7.271 6.599-12.66 13.578-10.475 27.519 8.62 59.568 22.198 84.896 24.909-6.305 6.283-11.273 12.79-14.852 19.469-10.05-1.704-24.764-4.873-36.076-10.144-3.757-1.751-8.218-.124-9.966 3.63-1.75 3.755-.124 8.217 3.63 9.966 11.709 5.456 26.195 8.85 36.944 10.812-1.848 7.867-1.918 16.004.223 23.666-10.775 1.957-25.381 5.361-37.167 10.853-3.754 1.75-5.38 6.211-3.63 9.966 1.754 3.766 6.22 5.375 9.966 3.631 11.893-5.542 27.545-8.761 37.584-10.395 6.341 9.014 15.454 15.914 24.963 21.308-24.783 4.067-49.934 14.466-71.715 23.483-3.827 1.584-5.646 5.971-4.062 9.798 1.585 3.828 5.972 5.645 9.798 4.061 32.067-13.274 71.891-29.745 103.426-22.192 8.872 2.591 18.183 4.802 27.698 6.687 2.039 8.617 2.098 16.749 1.721 22.378-.916 13.652 12.712 23.561 25.494 18.64 21.249-8.178 34.886-23.422 41.434-32.337 21.738 1.51 41.301 1.9 55.396 1.912-3.338 7.995-7.654 17.799-8.681 25.733-1.772 13.691 6.39 19.287 11.413 21.403 11.948 5.038 27.962-2.658 38.783-9.841 15.244-10.118 29.65-25.284 38.083-41.643 55.414-7.309 118.103-34.809 118.103-89.629 0-28.165-9.222-47.02-32.894-67.251zm-267.026 177.655c-2.545.981-5.325-.892-5.14-3.637.358-5.337.376-12.58-.87-20.565 11.573 1.847 23.24 3.27 34.593 4.36-6.322 6.806-15.884 14.955-28.583 19.842zm135.438 8.373c-11.974 7.947-21.182 9.982-24.663 8.516-1.704-.718-2.935-1.237-2.362-5.655 1.782-13.746 18.33-38.069 18.33-61.837 0-13.238 10.77-24.007 24.007-24.007 13.238 0 24.008 10.77 24.008 24.007-.001 15.835-12.306 41.045-39.32 58.976zm114.152-66.326c-16.345 9.664-38.312 17.122-61.6 21.072 1.161-4.657 1.767-9.251 1.767-13.721 0-21.887-18.172-39.771-40.423-38.971-3.131-10.582-5.076-26.612 4.88-40.444 2.42-3.362 1.656-8.049-1.705-10.469-3.361-2.419-8.048-1.657-10.469 1.705-13.297 18.473-11.214 39.009-7.331 52.636-13.528 6.13-22.967 19.75-22.967 35.543 0 6.105-1.555 12.645-3.726 19.154-42.05.321-83.356-2.651-116.86-8.453-34.443-5.964-96.451-21.155-96.451-56.13 0-43.029 77.921-79.319 154.892-92.929 57.232-10.12 163.613-14.959 207.683 22.707 19.481 16.649 26.951 30.729 27.59 52.67-5.003 3.703-11.946 2.9-15.997-1.749-2.722-3.123-7.459-3.448-10.581-.727-3.123 2.721-3.449 7.458-.728 10.582 6.117 7.02 15.707 10.664 25.558 8.673-4.127 15.075-15.352 28.102-33.532 38.851zm-271.129-67.606c-3.263-2.552-7.977-1.973-10.528 1.29-7.89 10.096-7.906 24.268 0 34.383 2.56 3.274 7.275 3.834 10.528 1.29 3.264-2.551 3.841-7.264 1.29-10.528-3.646-4.664-3.653-11.233 0-15.906 2.551-3.265 1.974-7.978-1.29-10.529zm63.734 24.969c-3.263-2.551-7.977-1.974-10.528 1.29-7.906 10.116-7.891 24.286 0 34.383 2.56 3.274 7.275 3.833 10.528 1.289 3.264-2.551 3.841-7.264 1.29-10.528-3.598-4.602-3.699-11.175 0-15.906 2.55-3.264 1.973-7.978-1.29-10.528zm23.977-64.862c-3.263-2.552-7.977-1.974-10.528 1.29-7.906 10.116-7.892 24.286 0 34.383 2.56 3.274 7.275 3.833 10.528 1.29 3.264-2.551 3.841-7.264 1.29-10.528-3.598-4.602-3.699-11.175 0-15.906 2.551-3.265 1.974-7.978-1.29-10.529z"/></g></svg>